# xmcd
#
# Track frame offsets:
#	150
#	14627
#	27247
#	41927
#	54975
#	66370
#	76917
#	87450
#	100710
#	112205
#	126502
#	139297
#	151210
#	161887
#	174915
#	187905
#	201502
#	212725
#	224710
#	238165
#
# Disc length: 3313 seconds
#
# Revision: 1
# Processed by: cddbd v1.5.2PL0 Copyright (c) Steve Scherf et al.
# Submitted via: audiograbber 1.83.01
#
DISCID=320cef14
DTITLE=Nat King Cole - Legendary Performers (2 of 2)
DYEAR=1995
DGENRE=Big Band
TTITLE0=That Sunday That Summer
TTITLE1=Some Closer to Me
TTITLE2=Star Dust
TTITLE3=Someone You Love (ft Nelson Riddle Orchestra)
TTITLE4=Angel Smile
TTITLE5=Time and the River
TTITLE6=To the Ends of the Earth
TTITLE7=Ask Me (ft Nelson Riddle Orchestra)
TTITLE8=The Sand and the Sea (ft Nelson Riddle Orchestra)
TTITLE9=Dear Lonely Hearts
TTITLE10=Night Lights
TTITLE11=I Don't Want to See Tommorrow
TTITLE12=When Rock and Roll Come to Trinidad
TTITLE13=Too Young to Go Steady
TTITLE14=Ballerina
TTITLE15=Forgive My Heart (ft Nelson Riddle Orchestra)
TTITLE16=I Don't Want to Be Hurt Anymore
TTITLE17=With You on My Mind
TTITLE18=My Personal Possession (ft The Four Knights)
TTITLE19=That's All There is to That (ft The Four Knights and Nelson Riddle)
EXTD=
EXTT0=
EXTT1=
EXTT2=
EXTT3=
EXTT4=
EXTT5=
EXTT6=
EXTT7=
EXTT8=
EXTT9=
EXTT10=
EXTT11=
EXTT12=
EXTT13=
EXTT14=
EXTT15=
EXTT16=
EXTT17=
EXTT18=
EXTT19=
PLAYORDER=
